<svg width="323" height="476" viewBox="0 0 323 476" fill="none" xmlns="http://www.w3.org/2000/svg">
<path d="M124.79 393.88L140.87 426.86H43.1099L59.0999 393.88H43.1099L59.4099 360.27H124.48L140.87 393.88H124.79Z" fill="#CE3F8F"/>
<path d="M60.1401 426.86H123.85V444.05C123.85 461.63 109.58 475.9 92.0001 475.9C74.4201 475.9 60.1501 461.63 60.1501 444.05V426.86H60.1401Z" fill="#6D3AC6"/>
<path d="M259.22 393.88L275.31 426.86H177.55L193.53 393.88H177.55L193.84 360.27H258.91L275.31 393.88H259.22Z" fill="#CE3F8F"/>
<path d="M194.57 426.86H258.28V444.05C258.28 461.63 244.01 475.9 226.43 475.9C208.85 475.9 194.58 461.63 194.58 444.05V426.86H194.57Z" fill="#6D3AC6"/>
<path d="M256.9 324.09L281.47 360.27H36.95L61.3899 324.02H36.95L61.3899 287.3H45.09L61.3899 250.7L126.49 260.19L256.9 259.82L273.06 287.3H256.85L256.9 287.37L281.47 324.02H256.85L256.9 324.09Z" fill="#FFDD00"/>
<path d="M56.12 295.2L69.55 307.82L92.36 286.32L114.51 308.31L137.16 286.81L159.81 308.31L181.97 286.32L204.61 307.82L227.42 286.15L231.64 290.37L246.18 304.09L259.7 291.54L264.93 299.35L246.34 317.94L246.23 317.83L227.1 298.86L204.45 321.51L181.8 298.86L159.16 321.51L137 299.35L114.35 320.86L92.36 299.02L69.71 321.67L50.78 303.24" fill="black"/>
<path d="M61.38 250.7C61.38 240.3 59.47 226.59 54.59 218.77C48.07 208.34 36.34 201.17 13.53 201.01L13.2 214.04C21.35 213.71 29.17 214.53 35.85 218.76C41.55 222.34 46.28 228.21 49.86 237.99C29.98 231.15 18.58 233.27 10.59 238.48C6.35 241.25 3.1 244.67 0 248.42L8.96 256.73C9.45 255.92 10.1 255.26 10.59 254.61C20.37 243.04 31.61 243.37 43.5 249.72C17.59 262.1 13.52 283.94 14.82 299.74C15.96 299.9 27.53 299.74 27.53 299.74C26.39 284.42 35.68 263.38 58.49 257.19L61.37 250.7H61.38Z" fill="#6D3AC6"/>
<path d="M264.93 259.99L126.73 260.18L138.93 222.34H126.84L138.93 189.76H252.78L264.93 222.51H252.78L264.93 259.99Z" fill="#1DB9D2"/>
<path d="M270 189.93L123.83 190.09L147.73 141.05H131.51L155.56 93.8L270 118.89V189.93Z" fill="#FFDD00"/>
<path d="M270 189.93V118.89C270 118.89 312.07 128.36 321.12 151.79C321.77 153.48 322.05 155.3 322.05 157.11C323.75 188.96 270.01 189.93 270.01 189.93H270Z" fill="#CE3F8F"/>
<path d="M234.13 111.02C272.42 57.91 291.34 31.64 276.19 18.77C266.25 10.3 251.63 17.46 229.79 33.75C228.98 51.18 226.03 75.12 220.49 108.03L234.13 111.02Z" fill="#008599"/>
<path d="M218.19 1.49998C197.5 -3.55002 185.54 29.6 155.57 93.8L222.27 108.42C227.81 75.51 230.85 51.43 230.74 32.78C231.55 14.04 228.3 3.93998 218.19 1.49998Z" fill="#1DB9D2"/>
<path d="M225.55 158.83C234.016 158.83 240.88 151.967 240.88 143.5C240.88 135.033 234.016 128.17 225.55 128.17C217.083 128.17 210.22 135.033 210.22 143.5C210.22 151.967 217.083 158.83 225.55 158.83Z" fill="white"/>
<path d="M225.55 150.92C229.648 150.92 232.97 147.598 232.97 143.5C232.97 139.402 229.648 136.08 225.55 136.08C221.452 136.08 218.13 139.402 218.13 143.5C218.13 147.598 221.452 150.92 225.55 150.92Z" fill="black"/>
<path d="M270 187.2V189.93H261.31L242.5 181.79C241.05 181.21 239.14 179.09 239.93 177.56C240.4 176.62 242.28 175.49 245.32 176.68L270 187.19V187.2Z" fill="black"/>
</svg>
