<svg width="284" height="284" viewBox="0 0 284 284" fill="none" xmlns="http://www.w3.org/2000/svg">
<g clip-path="url(#clip0_1147_2)">
<path d="M177.336 73.144V61.624C177.336 57.4853 175.715 55.416 172.472 55.416C170.637 55.416 169.144 56.504 167.992 58.68C166.883 60.856 166.328 64.12 166.328 68.472C166.328 76.0667 168.227 79.864 172.024 79.864C173.56 79.864 174.819 79.3093 175.8 78.2C176.824 77.048 177.336 75.3627 177.336 73.144ZM178.04 80.312H177.912C175.821 82.6587 172.707 83.832 168.568 83.832C164.429 83.832 161.208 82.5307 158.904 79.928C156.643 77.2827 155.512 73.5067 155.512 68.6C155.512 63.992 156.856 60.1093 159.544 56.952C162.275 53.7947 165.923 52.216 170.488 52.216C173.517 52.216 175.757 52.8133 177.208 54.008H177.336V45.624C177.336 42.8507 176.013 41.1653 173.368 40.568H187.32V75C187.32 76.408 187.725 77.5173 188.536 78.328C189.389 79.1387 190.477 79.544 191.8 79.544C192.568 79.544 193.507 79.416 194.616 79.16C193.891 80.6533 192.632 81.784 190.84 82.552C189.091 83.2773 187.256 83.64 185.336 83.64C181.709 83.64 179.277 82.5307 178.04 80.312ZM202.08 39.032C203.061 39.8853 203.552 41.1013 203.552 42.68C203.552 44.2587 203.061 45.496 202.08 46.392C201.141 47.2453 199.861 47.672 198.24 47.672C196.618 47.672 195.317 47.2453 194.336 46.392C193.397 45.496 192.928 44.2587 192.928 42.68C192.885 41.144 193.354 39.928 194.336 39.032C195.317 38.136 196.618 37.688 198.24 37.688C199.861 37.688 201.141 38.136 202.08 39.032ZM203.424 83H193.44V57.912C193.44 55.0107 192.096 53.3253 189.407 52.856H203.424V83ZM237.159 75.768C236.69 77.0053 236.178 77.9013 235.623 78.456C232.636 82.0827 228.178 83.896 222.247 83.896C217.511 83.896 213.756 82.552 210.983 79.864C208.252 77.176 206.887 73.464 206.887 68.728C206.887 63.864 208.53 59.8533 211.815 56.696C215.143 53.5387 219.346 51.96 224.423 51.96C225.831 51.96 227.175 52.088 228.455 52.344C229.735 52.5573 231.015 52.92 232.295 53.432C233.575 53.944 234.578 54.7547 235.303 55.864C236.071 56.9307 236.455 58.2107 236.455 59.704C236.455 61.5813 235.794 63.224 234.471 64.632C233.148 65.9973 231.378 67.0853 229.159 67.896C226.983 68.664 224.999 69.24 223.207 69.624C221.458 70.008 219.602 70.3067 217.639 70.52C217.938 73.336 218.898 75.4907 220.519 76.984C222.183 78.4773 224.444 79.224 227.303 79.224C231.058 79.224 234.343 78.072 237.159 75.768ZM217.447 67.96C219.41 67.8747 221.244 67.4907 222.951 66.808C224.572 66.2107 225.703 65.3147 226.343 64.12C227.026 62.9253 227.367 61.3893 227.367 59.512C227.367 58.1893 227.004 57.0587 226.279 56.12C225.554 55.1387 224.53 54.648 223.207 54.648C222.012 54.648 220.988 55.0747 220.135 55.928C219.324 56.7387 218.727 57.8267 218.343 59.192C218.002 60.5573 217.746 61.816 217.575 62.968C217.447 64.0773 217.383 65.208 217.383 66.36C217.383 67.0853 217.404 67.6187 217.447 67.96ZM240.196 74.68V59.256C240.196 56.824 238.788 55.48 235.971 55.224L250.372 45.496V52.856H256.772L254.916 56.312H250.372V73.208C250.372 75 250.905 76.472 251.972 77.624C253.038 78.776 254.617 79.352 256.708 79.352C258.244 79.352 259.652 79.0747 260.932 78.52C260.206 80.0133 258.905 81.2933 257.028 82.36C255.15 83.384 252.889 83.896 250.244 83.896C247.001 83.896 244.505 83.0853 242.756 81.464C241.049 79.8 240.196 77.5387 240.196 74.68Z" fill="#F40202"/>
<path d="M97.792 149.472L100.864 155.232C100.011 156.597 98.9013 158.048 97.536 159.584C96.1707 161.035 93.9947 162.997 91.008 165.472C88.0213 167.861 84.096 169.867 79.232 171.488C74.4533 173.024 69.1627 173.792 63.36 173.792C49.4507 173.792 38.528 169.696 30.592 161.504C22.656 153.312 18.688 142.389 18.688 128.736C18.688 114.827 23.168 103.435 32.128 94.56C41.1733 85.6 52.608 81.12 66.432 81.12C71.4667 81.12 77.1413 81.9733 83.456 83.68C89.7707 85.3013 94.1227 85.8987 96.512 85.472L94.72 110.944C87.808 95.1573 78.6347 87.264 67.2 87.264C59.776 87.264 53.8027 90.72 49.28 97.632C44.7573 104.459 42.496 114.315 42.496 127.2C42.496 140.171 44.8853 149.813 49.664 156.128C54.4427 162.443 60.9707 165.6 69.248 165.6C76.416 165.6 82.6453 163.595 87.936 159.584C93.312 155.573 96.5973 152.203 97.792 149.472ZM139.788 153.568L139.916 126.56C139.916 122.72 139.02 119.861 137.228 117.984C135.436 116.107 133.26 115.168 130.7 115.168C122.337 115.168 118.156 124.341 118.156 142.688C118.156 158.048 121.996 165.728 129.676 165.728C132.833 165.728 135.308 164.661 137.1 162.528C138.977 160.395 139.873 157.408 139.788 153.568ZM141.836 166.624H141.58C136.887 171.317 130.273 173.664 121.74 173.664C113.889 173.664 107.703 171.104 103.18 165.984C98.7427 160.779 96.524 153.355 96.524 143.712C96.524 133.557 99.5107 125.323 105.484 119.008C111.543 112.608 120.161 109.408 131.34 109.408C142.604 109.408 152.161 112.395 160.012 118.368V156.512C160.012 159.328 160.823 161.504 162.444 163.04C164.065 164.576 166.284 165.344 169.1 165.344C171.404 165.344 173.239 165.088 174.604 164.576C173.324 167.392 170.977 169.568 167.564 171.104C164.236 172.64 160.695 173.408 156.94 173.408C149.772 173.408 144.737 171.147 141.836 166.624ZM168.935 169.824L169.959 151.136C171.324 156.171 173.799 160.437 177.383 163.936C180.967 167.435 185.66 169.184 191.463 169.184C194.62 169.184 197.095 168.501 198.887 167.136C200.764 165.771 201.703 163.851 201.703 161.376C201.703 159.413 200.935 157.664 199.399 156.128C197.863 154.507 195.9 153.184 193.511 152.16C191.207 151.051 188.69 149.771 185.959 148.32C183.314 146.869 180.796 145.376 178.407 143.84C176.103 142.304 174.183 140.213 172.647 137.568C171.111 134.923 170.343 131.893 170.343 128.48C170.343 122.165 172.647 117.429 177.255 114.272C181.863 111.029 187.666 109.408 194.663 109.408C202.087 109.408 208.444 110.688 213.735 113.248L211.431 128.224C210.236 124.043 208.188 120.8 205.287 118.496C202.386 116.107 198.887 114.912 194.791 114.912C192.231 114.912 190.183 115.509 188.647 116.704C187.111 117.813 186.343 119.307 186.343 121.184C186.343 123.147 187.41 124.939 189.543 126.56C191.762 128.181 194.407 129.675 197.479 131.04C200.636 132.32 203.751 133.813 206.823 135.52C209.895 137.141 212.498 139.488 214.631 142.56C216.85 145.632 217.959 149.259 217.959 153.44C217.959 159.925 215.612 165.045 210.919 168.8C206.226 172.555 199.698 174.432 191.335 174.432C183.996 174.432 176.53 172.896 168.935 169.824ZM224.766 155.36V124.512C224.766 119.648 221.95 116.96 216.318 116.448L245.118 96.992V111.712H257.918L254.206 118.624H245.118V152.416C245.118 156 246.185 158.944 248.318 161.248C250.451 163.552 253.609 164.704 257.79 164.704C260.862 164.704 263.678 164.149 266.238 163.04C264.787 166.027 262.185 168.587 258.43 170.72C254.675 172.768 250.153 173.792 244.862 173.792C238.377 173.792 233.385 172.171 229.886 168.928C226.473 165.6 224.766 161.077 224.766 155.36Z" fill="#F40202"/>
<path d="M123.88 226.8C133.267 224.987 141.747 222.373 149.32 218.96C153.48 217.147 161.8 212.987 174.28 206.48C185.16 200.827 193.587 196.773 199.56 194.32C211.613 189.307 227.773 186.8 248.04 186.8C253.373 186.8 259.88 187.12 267.56 187.76V202L250.12 198.16C243.507 196.773 237.64 196.08 232.52 196.08C225.48 196.08 216.253 197.307 204.84 199.76C195.88 201.68 187.72 204.773 180.36 209.04C175.987 211.6 168.413 216.507 157.64 223.76C148.787 229.733 141.16 234.48 134.76 238C123.88 243.973 108.253 246.96 87.88 246.96C65.3733 246.96 43.5067 241.893 22.28 231.76V205.2C50.44 221.093 77.1067 229.04 102.28 229.04C109.96 229.04 117.16 228.347 123.88 226.96V226.8Z" fill="#F40202"/>
</g>
<defs>
<clipPath id="clip0_1147_2">
<rect width="284" height="284" fill="white"/>
</clipPath>
</defs>
</svg>
